<svg width="24" height="24" viewBox="0 0 24 24" fill="none" xmlns="http://www.w3.org/2000/svg">
<path d="M13.646 7.94641L3.31381 19.7946C2.98301 20.1739 3.02236 20.7496 3.40169 21.0804L4.18955 21.7675C4.56889 22.0983 5.14457 22.0589 5.47537 21.6796L15.8076 9.83139C16.1384 9.45206 16.099 8.87638 15.7197 8.54558L14.9318 7.85852C14.5525 7.52772 13.9768 7.56707 13.646 7.94641Z" fill="#FCF09A"/>
<path d="M13.5078 8.05566L15.4456 5.8335C15.6717 5.57425 16.0625 5.54754 16.3218 5.77362L17.5473 6.84236C17.8066 7.06844 17.8333 7.45923 17.6072 7.71848L15.6694 9.94065L13.5078 8.05566Z" fill="white"/>
<path d="M6.50781 20.5415L4.56998 22.7637C4.3439 23.0229 3.95311 23.0496 3.69385 22.8236L2.4683 21.7548C2.20904 21.5287 2.18233 21.1379 2.40842 20.8787L4.34625 18.6565L6.50781 20.5415Z" fill="white"/>
<path d="M12.5485 5.38343C9.91675 6.3488 9.13476 7.13256 8.17038 9.77149C7.20501 7.13973 6.42124 6.35774 3.78231 5.39336C6.41407 4.42799 7.19606 3.64422 8.16045 1.00529C9.12582 3.63705 9.90958 4.41904 12.5485 5.38343Z" fill="#7DDFF9"/>
<path d="M20.8312 14.7999C19.2274 15.3896 18.7494 15.8631 18.1597 17.4713C17.57 15.8676 17.0965 15.3896 15.4883 14.7999C17.092 14.2102 17.57 13.7367 18.1597 12.1284C18.7494 13.7322 19.223 14.2102 20.8312 14.7999Z" fill="#7DDFF9"/>
<path d="M21.9991 9.33156C20.9358 9.72021 20.6187 10.0374 20.23 11.1006C19.8413 10.0374 19.5242 9.72021 18.4609 9.33156C19.5242 8.9429 19.8413 8.62572 20.23 7.5625C20.6187 8.62572 20.9358 8.9429 21.9991 9.33156Z" fill="white"/>
</svg>
