<svg width="24" height="24" viewBox="0 0 24 24" fill="none" xmlns="http://www.w3.org/2000/svg">
<path d="M22.1692 6.51387C23.1228 8.28173 23.5991 10.2676 23.551 12.2757C23.5029 14.2838 22.9322 16.2446 21.8951 17.9648C20.8581 19.685 19.3905 21.1052 17.6371 22.0852C15.8838 23.0652 13.9052 23.5712 11.8967 23.5533L11.9998 11.9992L22.1692 6.51387Z" fill="#7DDFF9"/>
<path d="M1.83373 6.50865C2.83559 4.65383 4.3258 3.10844 6.143 2.03984C7.96019 0.971232 10.0351 0.420141 12.143 0.446238C14.251 0.472337 16.3116 1.07463 18.1018 2.1879C19.892 3.30116 21.3435 4.88297 22.2991 6.76203L12 11.9998L1.83373 6.50865Z" fill="#FCEF7B"/>
<path d="M1.83077 6.51387C0.877192 8.28173 0.400948 10.2676 0.449013 12.2757C0.497076 14.2838 1.06779 16.2446 2.10485 17.9648C3.14192 19.685 4.60951 21.1052 6.36287 22.0852C8.11622 23.0652 10.0948 23.5712 12.1033 23.5533L12.0002 11.9992L1.83077 6.51387Z" fill="#9DF4B6"/>
</svg>
