<svg width="24" height="24" viewBox="0 0 24 24" fill="none" xmlns="http://www.w3.org/2000/svg">
<path d="M10.8834 5.3623H0V22.4345H10.8834V5.3623Z" fill="#7DDFF9"/>
<path d="M10.0214 6.21729H0.960938V12.7212H10.0214V6.21729Z" fill="white"/>
<path d="M10.0214 13.4014H0.960938V19.9053H10.0214V13.4014Z" fill="white"/>
<path d="M10.0214 20.6924H0.960938V22.4298H10.0214V20.6924Z" fill="white"/>
<path d="M24.0009 5.40234H13.1445V22.4295H24.0009V5.40234Z" fill="#9DF4B6"/>
<path d="M23.1434 6.25732H14.1055V12.7477H23.1434V6.25732Z" fill="white"/>
<path d="M23.1434 13.4238H14.1055V19.9142H23.1434V13.4238Z" fill="white"/>
<path d="M23.1434 20.6968H14.1055V22.4297H23.1434V20.6968Z" fill="white"/>
<path d="M19.0321 1H5.36719V22.4291H19.0321V1Z" fill="#F4E87C"/>
<path d="M17.9566 2.07568H6.57812V10.245H17.9566V2.07568Z" fill="white"/>
<path d="M17.9566 11.0957H6.57812V19.265H17.9566V11.0957Z" fill="white"/>
<path d="M17.9566 20.251H6.57812V22.4294H17.9566V20.251Z" fill="white"/>
</svg>
