<svg width="24" height="20" viewBox="0 0 24 20" fill="none" xmlns="http://www.w3.org/2000/svg">
<path d="M20.1271 3.08496H3.87536C3.1395 3.08496 2.54297 3.68149 2.54297 4.41735V17.8176C2.54297 18.5535 3.1395 19.15 3.87536 19.15H20.1271C20.863 19.15 21.4595 18.5535 21.4595 17.8176V4.41735C21.4595 3.68149 20.863 3.08496 20.1271 3.08496Z" fill="white"/>
<path d="M23.9576 5.03677L21.7511 2.83451C21.7511 2.83451 21.7511 2.83027 21.7468 2.83027L18.9165 0H4.69731L2.00707 2.88119L0.0424328 4.98161C0.0424328 4.98161 0.0339462 5.01556 0.0339462 5.03677C0.00848656 5.16407 0 5.29986 0 5.43564C0 6.89109 1.17963 8.07072 2.63508 8.07072C3.65347 8.07072 4.53607 7.49363 4.97737 6.64498C5.41443 7.49363 6.29703 8.07072 7.31542 8.07072C8.33381 8.07072 9.22065 7.49363 9.66195 6.64498C10.099 7.49363 10.9816 8.07072 12 8.07072C13.0184 8.07072 13.901 7.49363 14.3423 6.64498C14.7793 7.49363 15.662 8.07072 16.6803 8.07072C17.6987 8.07072 18.5813 7.49363 19.0226 6.64498C19.4597 7.49363 20.3465 8.07072 21.3649 8.07072C22.8204 8.07072 24 6.89109 24 5.43564L23.9576 5.03677Z" fill="#FCEF7B"/>
<path d="M11.9989 10.6294C10.2506 10.6294 8.83338 11.8896 8.81641 13.4469V19.1372H15.1813V13.4469C15.1644 11.8896 13.7471 10.6294 11.9989 10.6294Z" fill="#FCEF7B"/>
</svg>
