<svg width="24" height="21" viewBox="0 0 24 21" fill="none" xmlns="http://www.w3.org/2000/svg">
<path d="M21.7717 1.56664C20.5519 0.517788 19.0537 0 17.5621 0C16.0704 0 14.5589 0.531064 13.359 1.56664C12.948 1.92511 12.6099 2.34996 12.3116 2.808L12.0066 3.27268L11.7017 2.808C11.41 2.34996 11.0719 1.91847 10.6542 1.56664C9.45431 0.531064 7.9627 0 6.4512 0C4.9397 0 3.46134 0.517788 2.24153 1.56664C-0.456628 3.89005 -0.761584 7.96597 1.5587 10.6678L10.0708 19.8353C10.5879 20.3862 11.2907 20.6518 11.9867 20.6518C11.9867 20.6518 11.9934 20.6518 12 20.6518C12.0066 20.6518 12.0066 20.6518 12.0133 20.6518C12.7093 20.6518 13.4121 20.3796 13.9292 19.8353L22.4413 10.6678C24.7616 7.96597 24.4566 3.89005 21.7585 1.56664H21.7717Z" fill="#5453EE"/>
</svg>
