<svg width="20" height="25" viewBox="0 0 20 25" fill="none" xmlns="http://www.w3.org/2000/svg">
<path d="M18.8643 3.11768H1.13573C0.508485 3.11768 0 3.57634 0 4.14214V5.97242C0 6.53821 0.508485 6.99688 1.13573 6.99688H18.8643C19.4915 6.99688 20 6.53821 20 5.97242V4.14214C20 3.57634 19.4915 3.11768 18.8643 3.11768Z" fill="#5453EE"/>
<path d="M17.5542 25.0002H2.8728C2.29109 25.0002 1.80632 24.6004 1.744 24.082L0.109647 9.30849C0.0403945 8.70881 0.56671 8.18408 1.23846 8.18408H18.7731C19.431 8.18408 19.9504 8.69007 19.9019 9.2835L18.6969 24.057C18.6554 24.5879 18.1637 25.0002 17.5681 25.0002H17.5542Z" fill="#5453EE"/>
<path d="M4.09961 4.01091V1.91827C4.09961 1.41228 4.71595 1 5.4708 1H14.529C15.2907 1 15.9002 1.41228 15.9002 1.91827V3.24881" stroke="#5453EE" stroke-width="2" stroke-miterlimit="10"/>
<path d="M10.0898 10.9634V22.3886" stroke="white" stroke-width="1.3" stroke-linecap="round" stroke-linejoin="round"/>
<path d="M15.2625 11.0073L14.1406 22.3888" stroke="white" stroke-width="1.3" stroke-linecap="round" stroke-linejoin="round"/>
<path d="M4.73438 11.0386L6.20252 22.3888" stroke="white" stroke-width="1.3" stroke-linecap="round" stroke-linejoin="round"/>
</svg>
