<svg width="78" height="78" viewBox="0 0 78 78" fill="none" xmlns="http://www.w3.org/2000/svg">
<path d="M60.9502 0H17.3301C7.98548 0 0.410156 7.57534 0.410156 16.92V60.54C0.410156 69.8847 7.98548 77.46 17.3301 77.46H60.9502C70.2948 77.46 77.8701 69.8847 77.8701 60.54V16.92C77.8701 7.57534 70.2948 0 60.9502 0Z" fill="#5453EE"/>
<path d="M13.0312 41.09C28.5813 31.42 46.2013 24.65 65.6613 20.48" stroke="#171C24" stroke-width="2" stroke-linecap="round" stroke-linejoin="round"/>
<path d="M12.8398 22.4702C31.0298 24.5702 49.0298 30.2402 66.8598 39.0902" stroke="#171C24" stroke-width="2" stroke-linecap="round" stroke-linejoin="round"/>
<path d="M49.2416 47.7298L47.9916 48.4498C45.2916 49.6998 42.5016 50.2698 39.6916 50.2698H39.5216C36.6916 50.2798 33.8716 49.7098 31.1516 48.4498L29.9016 47.7298C26.2116 45.6998 24.8216 40.3898 28.2216 37.7698L28.3316 37.6798C29.5216 36.7598 31.0116 36.2998 32.5016 36.2998C33.4916 36.2998 34.4816 36.4898 35.3916 36.8998C35.3716 36.9398 35.3716 36.9898 35.3716 37.0298V38.9498C35.3716 39.3698 35.7116 39.7198 36.1416 39.7198H38.0616C38.4816 39.7198 38.8316 39.3698 38.8316 38.9498C38.8316 39.3698 39.1716 39.7198 39.5916 39.7198H41.5216C41.9416 39.7198 42.2816 39.3698 42.2816 38.9498V37.7098C42.4916 37.5998 42.7016 37.4898 42.9116 37.3598C44.0216 36.6398 45.3316 36.2998 46.6416 36.2998C48.1316 36.2998 49.6316 36.7598 50.8116 37.6798L50.9216 37.7698C54.3216 40.3898 52.9316 45.6998 49.2416 47.7298Z" fill="#171C24"/>
<path d="M38.8311 38.3199V38.9499C38.8311 39.3699 38.4811 39.7199 38.0611 39.7199H36.1411C35.7111 39.7199 35.3711 39.3699 35.3711 38.9499V37.0299C35.3711 37.0299 35.3711 36.9399 35.3911 36.8999C35.6811 37.0299 35.9711 37.1799 36.2411 37.3599C37.0311 37.8599 37.9111 38.1799 38.8311 38.3199Z" fill="white"/>
<path d="M42.282 37.71V38.95C42.282 39.37 41.942 39.72 41.522 39.72H39.592C39.172 39.72 38.832 39.37 38.832 38.95V38.32C39.072 38.36 39.3221 38.39 39.5721 38.4C40.5221 38.35 41.432 38.12 42.282 37.71Z" fill="white"/>
<path d="M40.1197 38.8701H36.6797V39.7201H40.1197V38.8701Z" fill="white"/>
</svg>
