<svg width="79" height="78" viewBox="0 0 79 78" fill="none" xmlns="http://www.w3.org/2000/svg">
<path d="M61.5283 0H17.9083C8.56364 0 0.988281 7.57534 0.988281 16.92V60.54C0.988281 69.8847 8.56364 77.46 17.9083 77.46H61.5283C70.8729 77.46 78.4483 69.8847 78.4483 60.54V16.92C78.4483 7.57534 70.8729 0 61.5283 0Z" fill="#B0B0EE"/>
<path d="M66.0389 28.6698C66.0389 35.6198 60.3989 41.2498 53.4589 41.2498C46.5189 41.2498 40.8789 35.6198 40.8789 28.6698C40.8789 27.8998 40.9489 27.1498 41.0889 26.4198L63.8489 21.5898C65.2289 23.5998 66.0389 26.0498 66.0389 28.6698Z" fill="white"/>
<path d="M53.4587 27.4798C53.4587 30.9398 50.6687 33.7298 47.2188 33.7298C43.7687 33.7298 40.9688 30.9398 40.9688 27.4798C40.9688 27.1198 40.9988 26.7698 41.0688 26.4198L52.3987 24.0098C53.0687 25.0098 53.4587 26.1998 53.4587 27.4798Z" fill="#171C24"/>
<path d="M42.3386 47.79C41.0586 49.7 39.1586 51.06 36.8886 51.48C35.0386 51.82 33.1986 51.49 31.5586 50.63C31.9186 48.92 32.9986 47.36 34.6586 46.45C37.2686 45.02 40.4486 45.64 42.3386 47.79Z" fill="#676E79"/>
<path d="M44.1891 42.0401C44.1091 43.9401 43.5791 45.7201 42.6991 47.2201C42.5891 47.4101 42.4691 47.6001 42.3391 47.7901C40.4491 45.6401 37.2691 45.0201 34.6591 46.4501C32.9991 47.3601 31.9191 48.9201 31.5591 50.6301C29.4891 49.5601 27.7391 47.6601 26.7091 45.2601C26.2591 44.2101 26.9191 43.0001 28.0491 42.7901L42.0491 40.2201C43.1791 40.0101 44.2391 40.8901 44.1891 42.0401Z" fill="#171C24"/>
<path d="M14.9175 21.1201C15.2575 21.3501 34.2375 27.8301 34.2375 27.8301C27.3275 28.6301 20.7675 30.8301 14.6875 35.1101" stroke="#171C24" stroke-width="2" stroke-linecap="round" stroke-linejoin="round"/>
</svg>
