<svg width="78" height="78" viewBox="0 0 78 78" fill="none" xmlns="http://www.w3.org/2000/svg">
<path d="M60.54 0H16.92C7.57534 0 0 7.57534 0 16.92V60.54C0 69.8847 7.57534 77.46 16.92 77.46H60.54C69.8847 77.46 77.46 69.8847 77.46 60.54V16.92C77.46 7.57534 69.8847 0 60.54 0Z" fill="#9DF4B6"/>
<path d="M33.0312 40.78C33.0312 40.78 38.3613 37.7 44.8213 40.84" stroke="#171C24" stroke-width="2" stroke-linecap="round" stroke-linejoin="round"/>
<path d="M66.9608 26.2699C66.9608 33.2199 61.3208 38.8499 54.3808 38.8499C47.4408 38.8499 41.8008 33.2199 41.8008 26.2699C41.8008 25.4999 41.8708 24.7499 42.0108 24.0199L64.7708 19.1899C66.1508 21.1999 66.9608 23.6499 66.9608 26.2699Z" fill="white"/>
<path d="M54.3689 25.0799C54.3689 28.5399 51.5789 31.3299 48.1289 31.3299C44.6789 31.3299 41.8789 28.5399 41.8789 25.0799C41.8789 24.7199 41.9089 24.3699 41.9789 24.0199L53.3089 21.6099C53.9789 22.6099 54.3689 23.7999 54.3689 25.0799Z" fill="#171C24"/>
<path d="M11.0117 26.1899C11.0117 33.1399 16.6517 38.7699 23.5917 38.7699C30.5317 38.7699 36.1717 33.1399 36.1717 26.1899C36.1717 25.4199 36.1017 24.6699 35.9617 23.9399L13.2017 19.1099C11.8217 21.1199 11.0117 23.5699 11.0117 26.1899Z" fill="white"/>
<path d="M23.6016 24.9998C23.6016 28.4598 26.3916 31.2498 29.8416 31.2498C33.2916 31.2498 36.0916 28.4598 36.0916 24.9998C36.0916 24.6398 36.0616 24.2898 35.9916 23.9398L24.6616 21.5298C23.9916 22.5298 23.6016 23.7198 23.6016 24.9998Z" fill="#171C24"/>
</svg>
