<svg width="78" height="78" viewBox="0 0 78 78" fill="none" xmlns="http://www.w3.org/2000/svg">
<path d="M60.5986 0H16.9786C7.63393 0 0.0585938 7.57534 0.0585938 16.92V60.54C0.0585938 69.8847 7.63393 77.46 16.9786 77.46H60.5986C69.9433 77.46 77.5186 69.8847 77.5186 60.54V16.92C77.5186 7.57534 69.9433 0 60.5986 0Z" fill="#7DDFF9"/>
<path d="M44.7702 45.52C43.1702 47.17 41.0602 48.17 38.7502 48.18C36.8702 48.18 35.1202 47.53 33.6602 46.4C34.3202 44.78 35.6601 43.44 37.4501 42.84C40.2701 41.9 43.2902 43.07 44.7702 45.52Z" fill="#676E79"/>
<path d="M47.6192 40.19C47.1992 42.05 46.3692 43.7 45.2292 45.02C45.0892 45.19 44.9392 45.35 44.7692 45.52C43.2892 43.07 40.2692 41.89 37.4492 42.84C35.6492 43.44 34.3092 44.78 33.6592 46.4C31.8092 44.98 30.4292 42.8 29.8392 40.25C29.5792 39.14 30.4492 38.06 31.5992 38.06L45.8292 38.02C46.9792 38.02 47.8692 39.07 47.6092 40.19H47.6192Z" fill="#171C24"/>
<path d="M12.5886 32.6101C12.5686 32.3201 12.5586 32.0401 12.5586 31.7501C12.5586 24.4801 18.4586 18.5801 25.7386 18.5801" stroke="#171C24" stroke-width="1.58" stroke-linecap="round" stroke-linejoin="round"/>
<path d="M39.0172 32.6101C39.0372 32.3201 39.0472 32.0401 39.0472 31.7501C39.0472 24.4801 33.1472 18.5801 25.8672 18.5801" stroke="#171C24" stroke-width="1.58" stroke-linecap="round" stroke-linejoin="round"/>
<path d="M39.0769 32.6101C39.0569 32.3201 39.0469 32.0401 39.0469 31.7501C39.0469 24.4801 44.9469 18.5801 52.2269 18.5801" stroke="#171C24" stroke-width="1.58" stroke-linecap="round" stroke-linejoin="round"/>
<path d="M65.4977 32.6101C65.5177 32.3201 65.5276 32.0401 65.5276 31.7501C65.5276 24.4801 59.6277 18.5801 52.3477 18.5801" stroke="#171C24" stroke-width="1.58" stroke-linecap="round" stroke-linejoin="round"/>
</svg>
