<svg width="78" height="78" viewBox="0 0 78 78" fill="none" xmlns="http://www.w3.org/2000/svg">
<path d="M60.9697 0H17.3497C8.00503 0 0.429688 7.57534 0.429688 16.92V60.54C0.429688 69.8847 8.00503 77.46 17.3497 77.46H60.9697C70.3143 77.46 77.8897 69.8847 77.8897 60.54V16.92C77.8897 7.57534 70.3143 0 60.9697 0Z" fill="#FCEF7B"/>
<path d="M26.6581 41.5501C33.6059 41.5501 39.2381 35.9179 39.2381 28.9701C39.2381 22.0224 33.6059 16.3901 26.6581 16.3901C19.7104 16.3901 14.0781 22.0224 14.0781 28.9701C14.0781 35.9179 19.7104 41.5501 26.6581 41.5501Z" fill="white"/>
<path d="M51.4902 41.5501C58.4379 41.5501 64.0702 35.9179 64.0702 28.9701C64.0702 22.0224 58.4379 16.3901 51.4902 16.3901C44.5424 16.3901 38.9102 22.0224 38.9102 28.9701C38.9102 35.9179 44.5424 41.5501 51.4902 41.5501Z" fill="white"/>
<path d="M31.1289 31.5298C34.5807 31.5298 37.3789 28.7316 37.3789 25.2798C37.3789 21.828 34.5807 19.0298 31.1289 19.0298C27.6771 19.0298 24.8789 21.828 24.8789 25.2798C24.8789 28.7316 27.6771 31.5298 31.1289 31.5298Z" fill="#171C24"/>
<path d="M56.2109 31.5298C59.6627 31.5298 62.4609 28.7316 62.4609 25.2798C62.4609 21.828 59.6627 19.0298 56.2109 19.0298C52.7592 19.0298 49.9609 21.828 49.9609 25.2798C49.9609 28.7316 52.7592 31.5298 56.2109 31.5298Z" fill="#171C24"/>
<path d="M33.0312 46.6299H44.2912" stroke="#171C24" stroke-width="2" stroke-linecap="round" stroke-linejoin="round"/>
</svg>
