<svg width="31" height="31" viewBox="0 0 31 31" fill="none" xmlns="http://www.w3.org/2000/svg">
<circle cx="15.5" cy="15.5" r="15" fill="white"/>
<path d="M23.9445 8.91466C22.9856 8.17623 21.8477 7.8125 20.7144 7.8125C19.4921 7.8125 18.2507 8.24816 17.2656 9.0977C16.9483 9.37476 16.675 9.71362 16.4206 10.1043L16.4191 10.1065L16.1332 10.5421L15.5062 11.4976L14.8792 10.5421L14.5933 10.1065L14.5876 10.0979L14.5877 10.0979C14.339 9.70738 14.0694 9.36953 13.7551 9.10482L13.7483 9.09905L13.7483 9.09901C12.7621 8.24783 11.5384 7.8125 10.298 7.8125C9.05636 7.8125 7.84498 8.2362 6.84058 9.09977L23.9445 8.91466ZM23.9445 8.91466L24.1592 9.09955C26.3712 11.0044 26.6249 14.3448 24.7289 16.5642L16.7621 25.1443C16.4277 25.4948 15.9709 25.6735 15.5124 25.6735H15.5124H15.5124H15.5123H15.5123H15.5122H15.5122H15.5122H15.5121H15.5121H15.5121H15.512H15.512H15.512H15.5119H15.5119H15.5119H15.5118H15.5118H15.5118H15.5117H15.5117H15.5117H15.5116H15.5116H15.5116H15.5115H15.5115H15.5115H15.5114H15.5114H15.5114H15.5113H15.5113H15.5113H15.5112H15.5112H15.5112H15.5111H15.5111H15.5111H15.511H15.511H15.511H15.511H15.5109H15.5109H15.5109H15.5108H15.5108H15.5108H15.5107H15.5107H15.5107H15.5107H15.5106H15.5106H15.5106H15.5105H15.5105H15.5105H15.5105H15.5104H15.5104H15.5104H15.5103H15.5103H15.5103H15.5103H15.5102H15.5102H15.5102H15.5101H15.5101H15.5101H15.5101H15.51H15.51H15.51H15.51H15.5099H15.5099H15.5099H15.5098H15.5098H15.5098H15.5098H15.5097H15.5097H15.5097H15.5097H15.5096H15.5096H15.5096H15.5096H15.5095H15.5095H15.5095H15.5095H15.5094H15.5094H15.5094H15.5094H15.5093H15.5093H15.5093H15.5093H15.5092H15.5092H15.5092H15.5092H15.5091H15.5091H15.5091H15.5091H15.509H15.509H15.509H15.509H15.5089H15.5089H15.5089H15.5089H15.5089H15.5088H15.5088H15.5088H15.5088H15.5087H15.5087H15.5087H15.5087H15.5086H15.5086H15.5086H15.5086H15.5086H15.5085H15.5085H15.5085H15.5085H15.5084H15.5084H15.5084H15.5084H15.5084H15.5083H15.5083H15.5083H15.5083H15.5083H15.5082H15.5082H15.5082H15.5082H15.5081H15.5081H15.5081H15.5081H15.5081H15.508H15.508H15.508H15.508H15.508H15.5079H15.5079H15.5079H15.5079H15.5079H15.5078H15.5078H15.5078H15.5078H15.5078H15.5077H15.5077H15.5077H15.5077H15.5077H15.5076H15.5076H15.5076H15.5076H15.5076H15.5075H15.5075H15.5075H15.5075H15.5075H15.5074H15.5074H15.5074H15.5074H15.5074H15.5073H15.5073H15.5073H15.5073H15.5073H15.5072H15.5072H15.5072H15.5072H15.5072H15.5072H15.5071H15.5071H15.5071H15.5071H15.5071H15.507H15.507H15.507H15.507H15.507H15.5069H15.5069H15.5069H15.5069H15.5069H15.5069H15.5068H15.5068H15.5068H15.5068H15.5068H15.5067H15.5067H15.5067H15.5067H15.5067H15.5067H15.5066H15.5066H15.5066H15.5066H15.5066H15.5065H15.5065H15.5065H15.5065H15.5065H15.5064H15.5064H15.5064H15.5064H15.5064H15.5064H15.5063H15.5063H15.5063H15.5063H15.5063H15.5062H15.5062H15.5062H15.5062H15.5062H15.5062H15.5061H15.5061H15.5061H15.5061H15.5061H15.506H15.506H15.506H15.506H15.506H15.506H15.5059H15.5059H15.5059H15.5059H15.5059H15.5058H15.5058H15.5058H15.5058H15.5058H15.5058H15.5057H15.5057H15.5057H15.5057H15.5057H15.5056H15.5056H15.5056H15.5056H15.5056H15.5056H15.5055H15.5055H15.5055H15.5055H15.5055H15.5054H15.5054H15.5054H15.5054H15.5054H15.5053H15.5053H15.5053H15.5053H15.5053H15.5053H15.5052H15.5052H15.5052H15.5052H15.5052H15.5051H15.5051H15.5051H15.5051H15.5051H15.505H15.505H15.505H15.505H15.505H15.5049H15.5049H15.5049H15.5049H15.5049H15.5048H15.5048H15.5048H15.5048H15.5048H15.5047H15.5047H15.5047H15.5047H15.5047H15.5046H15.5046H15.5046H15.5046H15.5046H15.5045H15.5045H15.5045H15.5045H15.5045H15.5044H15.5044H15.5044H15.5044H15.5044H15.5043H15.5043H15.5043H15.5043H15.5043H15.5042H15.5042H15.5042H15.5042H15.5042H15.5041H15.5041H15.5041H15.5041H15.504H15.504H15.504H15.504H15.504H15.5039H15.5039H15.5039H15.5039H15.5038H15.5038H15.5038H15.5038H15.5038H15.5037H15.5037H15.5037H15.5037H15.5036H15.5036H15.5036H15.5036H15.5035H15.5035H15.5035H15.5035H15.5035H15.5034H15.5034H15.5034H15.5034H15.5033H15.5033H15.5033H15.5033H15.5032H15.5032H15.5032H15.5032H15.5031H15.5031H15.5031H15.5031H15.503H15.503H15.503H15.503H15.5029H15.5029H15.5029H15.5029H15.5028H15.5028H15.5028H15.5028H15.5027H15.5027H15.5027H15.5027H15.5026H15.5026H15.5026H15.5026H15.5025H15.5025H15.5025H15.5024H15.5024H15.5024H15.5024H15.5023H15.5023H15.5023H15.5023H15.5022H15.5022H15.5022H15.5021H15.5021H15.5021H15.5021H15.502H15.502H15.502H15.5019H15.5019H15.5019H15.5019H15.5018H15.5018H15.5018H15.5017H15.5017H15.5017H15.5017H15.5016H15.5016H15.5016H15.5015H15.5015H15.5015H15.5014H15.5014H15.5014H15.5013H15.5013H15.5013H15.5013H15.5012H15.5012H15.5012H15.5011H15.5011H15.5011H15.501H15.501H15.501H15.5009H15.5009H15.5009H15.5008H15.5008H15.5008H15.5007H15.5007H15.5007H15.5006H15.5006H15.5006H15.5005H15.5005H15.5005H15.5004H15.5004H15.5004H15.5003H15.5003H15.5002H15.5002H15.5002H15.5001H15.5001H15.5001H15.5H15.5H15.5H15.4999H15.4999H15.4999H15.4998H15.4998H15.4997H15.4997H15.4997H15.4996H15.4996H15.4996H15.4995H15.4995H15.4994H15.4994H15.4994H15.4993H15.4993H15.4993H15.4992H15.4992H15.4992H15.4991H15.4991H15.4991H15.499H15.499H15.4989H15.4989H15.4989H15.4988H15.4988H15.4988H15.4987H15.4987H15.4987H15.4986H15.4986H15.4985H15.4985H15.4985H15.4984H15.4984H15.4984H15.4983H15.4983H15.4983H15.4982H15.4982H15.4981H15.4981H15.4981H15.498H15.498H15.498H15.4979H15.4979H15.4979H15.4978H15.4978H15.4977H15.4977H15.4977H15.4976H15.4976H15.4976H15.4975H15.4975H15.4975H15.4974H15.4974H15.4974H15.4973H15.4973H15.4972H15.4972H15.4972H15.4971H15.4971H15.4971H15.497H15.497H15.497H15.4969H15.4969H15.4969H15.4968H15.4968H15.4968H15.4967H15.4967H15.4966H15.4966H15.4966H15.4965H15.4965H15.4965H15.4964H15.4964H15.4964H15.4963H15.4963H15.4963H15.4962H15.4962H15.4962H15.4961H15.4961H15.4961H15.496H15.496H15.4959H15.4959H15.4959H15.4958H15.4958H15.4958H15.4957H15.4957H15.4957H15.4956H15.4956H15.4956H15.4955H15.4955H15.4955H15.4954H15.4954H15.4954H15.4953H15.4953H15.4953H15.4952H15.4952H15.4952H15.4951H15.4951H15.4951H15.495H15.495H15.495H15.4949H15.4949H15.4949H15.4948H15.4948H15.4948H15.4947H15.4947H15.4947H15.4946H15.4946H15.4946H15.4945H15.4945H15.4945H15.4944H15.4944H15.4944H15.4943H15.4943H15.4943H15.4942H15.4942H15.4942H15.4941H15.4941H15.4941H15.494H15.494H15.494H15.4939H15.4939H15.4939H15.4938H15.4938H15.4938H15.4937H15.4937H15.4937H15.4936H15.4936H15.4936H15.4936H15.4935H15.4935H15.4935H15.4934H15.4934H15.4934H15.4933H15.4933H15.4933H15.4932H15.4932H15.4932H15.4931H15.4931H15.4931H15.4931H15.493H15.493H15.493H15.4929H15.4929H15.4929H15.4928H15.4928H15.4928H15.4927H15.4927H15.4927H15.4927H15.4926H15.4926H15.4926H15.4925H15.4925H15.4925H15.4924H15.4924H15.4924H15.4924H15.4923H15.4923H15.4923H15.4922H15.4922H15.4922H15.4922H15.4921H15.4921H15.4921H15.492H15.492H15.492H15.492H15.4919H15.4919H15.4919H15.4918H15.4918H15.4918H15.4918H15.4917H15.4917H15.4917H15.4916H15.4916H15.4916H15.4916H15.4915H15.4915H15.4915H15.4915H15.4914H15.4914H15.4914H15.4913H15.4913H15.4913H15.4913H15.4912H15.4912H15.4912H15.4912H15.4911H15.4911H15.4911H15.4911H15.491H15.491H15.491H15.4909H15.4909H15.4909H15.4909H15.4908H15.4908H15.4908H15.4908H15.4907H15.4907H15.4907H15.4907H15.4906H15.4906H15.4906H15.4906H15.4905H15.4905H15.4905H15.4905H15.4904H15.4904H15.4904H15.4904H15.4903H15.4903H15.4903H15.4903H15.4903H15.4902H15.4902H15.4902H15.4902H15.4901H15.4901H15.4901H15.4901H15.49H15.49H15.49H15.49H15.49H15.4899H15.4899H15.4899H15.4899H15.4898H15.4898H15.4898H15.4898H15.4898H15.4897H15.4897H15.4897H15.4897H15.4896H15.4896H15.4896H15.4896H15.4896H15.4895H15.4895H15.4895H15.4895H15.4895H15.4894H15.4894H15.4894H15.4894H15.4894H15.4893H15.4893H15.4893H15.4893H15.4893H15.4892H15.4892H15.4892H15.4892H15.4892H15.4891H15.4891H15.4891H15.4891H15.4891H15.489H15.489H15.489H15.489H15.489H15.489H15.4889H15.4889H15.4889H15.4889H15.4889H15.4889H15.4888H15.4888H15.4888H15.4888H15.4888H15.4888H15.4887H15.4887H15.4887H15.4887H15.4887H15.4887H15.4886H15.4886H15.4886H15.4886H15.4886H15.4886H15.4885H15.4885H15.4885H15.4885H15.4885H15.4885H15.4885H15.4884H15.4884H15.4884H15.4884H15.4884H15.4884H15.4883H15.4883H15.4883H15.4883H15.4882H15.4882H15.4882H15.4882H15.4881H15.4881H15.4881H15.4881H15.488H15.488H15.488H15.488H15.488H15.4879H15.4879H15.4879H15.4879H15.4879H15.4878H15.4878H15.4878H15.4878H15.4878H15.4878H15.4878H15.4877H15.4877H15.4877H15.4877H15.4877H15.4877H15.4876H15.4876H15.4876H15.4876H15.4876C15.0242 25.6735 14.5702 25.4977 14.2395 25.1461C14.2391 25.1457 14.2387 25.1453 14.2383 25.1448L6.27112 16.5642C4.37522 14.345 4.62876 11.0048 6.84042 9.09991L23.9445 8.91466Z" fill="#B0B0EE" stroke="#B0B0EE" stroke-width="1.5"/>
</svg>
