<svg width="35" height="35" viewBox="0 0 35 35" fill="none" xmlns="http://www.w3.org/2000/svg">
<path d="M2.57227 8.48975H28.5664C30.6984 8.48975 32.4297 10.221 32.4297 12.353V27.4907C32.4297 29.6227 30.6984 31.354 28.5664 31.354H6.43556C4.3035 31.354 2.57227 29.6227 2.57227 27.4907V8.48975Z" stroke="#676F7B" stroke-width="2" stroke-miterlimit="10"/>
<path d="M17.5472 25.6315C20.6982 25.6315 23.2526 23.0771 23.2526 19.9261C23.2526 16.7751 20.6982 14.2207 17.5472 14.2207C14.3962 14.2207 11.8418 16.7751 11.8418 19.9261C11.8418 23.0771 14.3962 25.6315 17.5472 25.6315Z" stroke="#676F7B" stroke-width="2" stroke-miterlimit="10"/>
<path d="M17.5468 21.7166C18.5359 21.7166 19.3377 20.9148 19.3377 19.9257C19.3377 18.9366 18.5359 18.1348 17.5468 18.1348C16.5577 18.1348 15.7559 18.9366 15.7559 19.9257C15.7559 20.9148 16.5577 21.7166 17.5468 21.7166Z" fill="#676F7B"/>
<path d="M27.7083 14.5832C28.5137 14.5832 29.1667 13.9303 29.1667 13.1248C29.1667 12.3194 28.5137 11.6665 27.7083 11.6665C26.9029 11.6665 26.25 12.3194 26.25 13.1248C26.25 13.9303 26.9029 14.5832 27.7083 14.5832Z" fill="#676F7B"/>
<path d="M5.31836 3.646H8.92581C10.4438 3.646 11.6719 4.87406 11.6719 6.39209V8.30242H2.57227V6.39209C2.57227 4.87406 3.80033 3.646 5.31836 3.646Z" stroke="#676F7B" stroke-width="2" stroke-miterlimit="10"/>
</svg>
