<svg width="247" height="231" viewBox="0 0 247 231" fill="none" xmlns="http://www.w3.org/2000/svg">
<path d="M193.05 25.9901C193.493 27.0447 192.644 28.1881 191.506 28.0698L175.399 26.3939C174.239 26.2732 173.651 24.9359 174.346 23.9994L184.188 10.7426C184.883 9.80603 186.333 9.98186 186.785 11.0574L193.05 25.9901Z" fill="white" stroke="white" stroke-width="0.602124"/>
<path d="M69.3712 142.211H19.3882C8.68039 142.211 0 150.891 0 161.599V211.582C0 222.29 8.68039 230.97 19.3882 230.97H69.3712C80.079 230.97 88.7594 222.29 88.7594 211.582V161.599C88.7594 150.891 80.079 142.211 69.3712 142.211Z" fill="#FCEF7B"/>
<path d="M30.0674 189.81C38.0287 189.81 44.4825 183.356 44.4825 175.395C44.4825 167.434 38.0287 160.98 30.0674 160.98C22.1062 160.98 15.6523 167.434 15.6523 175.395C15.6523 183.356 22.1062 189.81 30.0674 189.81Z" fill="white"/>
<path d="M58.5088 189.833C66.4701 189.833 72.9239 183.379 72.9239 175.418C72.9239 167.457 66.4701 161.003 58.5088 161.003C50.5476 161.003 44.0938 167.457 44.0938 175.418C44.0938 183.379 50.5476 189.833 58.5088 189.833Z" fill="white"/>
<path d="M35.191 178.34C39.1463 178.34 42.3527 175.134 42.3527 171.178C42.3527 167.223 39.1463 164.017 35.191 164.017C31.2357 164.017 28.0293 167.223 28.0293 171.178C28.0293 175.134 31.2357 178.34 35.191 178.34Z" fill="#171C24"/>
<path d="M63.9156 178.362C67.8709 178.362 71.0773 175.156 71.0773 171.201C71.0773 167.245 67.8709 164.039 63.9156 164.039C59.9603 164.039 56.7539 167.245 56.7539 171.201C56.7539 175.156 59.9603 178.362 63.9156 178.362Z" fill="#171C24"/>
<path d="M51.7596 200.077L50.6825 200.684C48.3563 201.727 45.9615 202.197 43.5551 202.174H43.4062C40.9769 202.163 38.5706 201.647 36.2559 200.547L35.1902 199.917C32.0505 198.152 30.9047 193.58 33.8381 191.368L33.9298 191.288C34.9611 190.509 36.233 190.131 37.5164 190.142C38.3643 190.142 39.2123 190.326 39.9914 190.681C39.9685 190.715 39.9685 190.761 39.9685 190.795V192.446C39.9456 192.801 40.2321 193.11 40.6102 193.11H42.2603C42.6155 193.133 42.9249 192.835 42.9249 192.468C42.9249 192.824 43.2114 193.133 43.5666 193.133H45.2166C45.5719 193.156 45.8698 192.858 45.8698 192.491V191.426C46.0646 191.334 46.2365 191.242 46.4198 191.128C47.3823 190.52 48.5053 190.245 49.6283 190.245C50.9002 190.257 52.1835 190.669 53.1919 191.46L53.2836 191.54C56.1712 193.809 54.9336 198.347 51.7596 200.054V200.077Z" fill="#171C24"/>
<path d="M42.9265 191.93V192.469C42.9265 192.824 42.6171 193.122 42.2505 193.122H40.6004C40.2337 193.099 39.9473 192.801 39.9473 192.435V190.785C39.9473 190.785 39.9587 190.704 39.9816 190.67C40.2337 190.785 40.4744 190.911 40.7035 191.071C41.3796 191.506 42.1244 191.793 42.9151 191.919L42.9265 191.93Z" fill="white"/>
<path d="M45.8825 191.438V192.503C45.871 192.858 45.5731 193.156 45.2178 193.156H43.5678C43.2126 193.133 42.9146 192.835 42.9261 192.469V191.93C43.1324 191.965 43.3501 191.999 43.5678 192.01C44.3814 191.976 45.1606 191.781 45.8939 191.438H45.8825Z" fill="white"/>
<path d="M44.0519 192.411L41.0957 192.382L41.0886 193.104L44.0449 193.133L44.0519 192.411Z" fill="white"/>
<path d="M212.193 140.503H162.21C151.503 140.503 142.822 149.183 142.822 159.891V209.874C142.822 220.582 151.503 229.262 162.21 229.262H212.193C222.901 229.262 231.582 220.582 231.582 209.874V159.891C231.582 149.183 222.901 140.503 212.193 140.503Z" fill="#9DF4B6"/>
<path d="M217.361 173.355C217.361 181.319 210.899 187.77 202.946 187.77C194.994 187.77 188.531 181.319 188.531 173.355C188.531 172.473 188.611 171.613 188.772 170.777L214.852 165.242C216.433 167.545 217.361 170.353 217.361 173.355Z" fill="white"/>
<path d="M202.947 171.991C202.947 175.956 199.75 179.153 195.796 179.153C191.843 179.153 188.635 175.956 188.635 171.991C188.635 171.579 188.669 171.178 188.749 170.777L201.732 168.015C202.5 169.161 202.947 170.525 202.947 171.991Z" fill="#171C24"/>
<path d="M190.204 195.264C188.737 197.453 186.56 199.011 183.959 199.492C181.839 199.882 179.731 199.504 177.852 198.518C178.264 196.559 179.502 194.771 181.404 193.729C184.395 192.09 188.038 192.8 190.204 195.264Z" fill="#676E79"/>
<path d="M192.324 188.675C192.233 190.853 191.625 192.892 190.617 194.611C190.491 194.829 190.353 195.046 190.204 195.264C188.039 192.801 184.395 192.09 181.404 193.729C179.502 194.771 178.264 196.559 177.852 198.518C175.48 197.292 173.475 195.115 172.294 192.365C171.779 191.162 172.535 189.775 173.83 189.535L189.872 186.59C191.167 186.349 192.382 187.358 192.324 188.675Z" fill="#171C24"/>
<path d="M158.783 164.704C159.173 164.968 180.921 172.393 180.921 172.393C173.003 173.31 165.486 175.831 158.52 180.735" stroke="#171C24" stroke-width="2.29175" stroke-linecap="round" stroke-linejoin="round"/>
<path d="M228.107 57.3247L181.646 44.597C171.691 41.8699 161.41 47.7293 158.683 57.6843L145.956 104.145C143.228 114.1 149.088 124.381 159.043 127.108L205.504 139.836C215.458 142.563 225.739 136.703 228.466 126.748L241.194 80.2877C243.921 70.3327 238.062 60.0518 228.107 57.3247Z" fill="#7DDFF9"/>
<path d="M167.449 78.0529C167.507 77.7435 167.587 77.4341 167.667 77.1247C169.787 69.3786 177.796 64.818 185.554 66.9379" stroke="#171C24" stroke-width="2.80739" stroke-linecap="round" stroke-linejoin="round"/>
<path d="M195.603 85.7648C195.706 85.4668 195.798 85.1689 195.89 84.8595C198.01 77.1134 193.449 69.1038 185.691 66.9839" stroke="#171C24" stroke-width="2.80739" stroke-linecap="round" stroke-linejoin="round"/>
<path d="M195.672 85.776C195.729 85.4666 195.809 85.1572 195.89 84.8478C198.009 77.1017 206.019 72.5412 213.777 74.661" stroke="#171C24" stroke-width="2.80739" stroke-linecap="round" stroke-linejoin="round"/>
<path d="M223.814 93.4879C223.917 93.19 224.009 92.892 224.101 92.5827C226.22 84.8366 221.66 76.8269 213.902 74.707" stroke="#171C24" stroke-width="2.80739" stroke-linecap="round" stroke-linejoin="round"/>
<path d="M184.625 94.8867C184.625 94.8867 190.331 100.731 199.819 99.7567" stroke="#171C24" stroke-width="2.80739" stroke-linecap="round" stroke-linejoin="round"/>
<path d="M37.9316 128.774C54.5993 100.383 71.0485 92.6409 93.026 98.9659C115.004 105.291 110.187 126.664 94.5313 121.546C78.8761 116.428 75.5644 100.889 75.5644 73.6795C75.5644 46.47 123 -36.7322 186 23.2678" stroke="white" stroke-width="3" stroke-linecap="round" stroke-linejoin="round" stroke-dasharray="8.43 8.43"/>
</svg>
