<svg width="171" height="53" viewBox="0 0 171 53" fill="none" xmlns="http://www.w3.org/2000/svg">
<g filter="url(#filter0_d_759_3848)">
<path d="M25.9085 8.09121C26.7089 7.03951 28.2911 7.03951 29.0915 8.0912L37.6135 19.2888C38.6155 20.6054 37.6765 22.5 36.0219 22.5H18.9781C17.3235 22.5 16.3845 20.6054 17.3865 19.2888L25.9085 8.09121Z" fill="white"/>
<rect x="7" y="14" width="151" height="26" rx="13" fill="white"/>
<path d="M25.5664 21.5312V23.7109H27.1367V24.4844H25.5664V26.793H24.6523V21.5312H25.5664ZM18.8516 22V25.4922C20.334 25.498 21.8633 25.3926 23.5508 25.0469L23.668 25.8203C21.8867 26.1836 20.3281 26.2891 18.7578 26.2891H17.9258V22H18.8516ZM25.5664 27.2969V29.8398H19.8594V31.0586H25.9531V31.8086H18.9453V29.1133H24.6523V28.0352H18.9219V27.2969H25.5664ZM36.1016 21.5312V25.6797H37.5781V26.4648H36.1016V31.9492H35.1758V21.5312H36.1016ZM30.1602 24.6719C30.1602 25.8086 30.3184 27.502 31.1914 28.6328C32.0352 27.5312 32.2109 25.8613 32.2227 24.6719V23.3711H31.4141V22.5977H34.3086V23.3711H33.0898V24.6719C33.0898 26.207 33.4414 28.1523 34.7422 29.0898L34.1328 29.7695C33.3594 29.1719 32.9023 28.1816 32.6562 27.0977C32.4219 28.1992 31.9824 29.2363 31.1797 29.8516C30.3828 29.2363 29.9492 28.1875 29.7148 27.0977C29.4629 28.1758 29.0117 29.166 28.25 29.7695L27.6406 29.0898C28.918 28.1406 29.2812 26.1367 29.293 24.6719V23.3711H27.9805V22.5977H30.957V23.3711H30.1602V24.6719ZM47.6914 26.3711V27.0977H38.1523V26.3711H47.6914ZM46.4961 27.9297V30.1445H40.2383V31.1406H46.8359V31.8086H39.3125V29.5117H45.582V28.6211H39.3008V27.9297H46.4961ZM46.4609 21.8477V24.0039H40.3086V24.918H46.6484V25.5859H39.3945V23.3711H45.5352V22.5156H39.3594V21.8477H46.4609ZM55.1094 23.5C55.1094 24.9531 56.1641 26.3242 57.6875 26.875L57.1719 27.5898C56.0293 27.1328 55.1211 26.2246 54.6758 25.0938C54.2305 26.3535 53.2812 27.3555 52.0508 27.8477L51.5586 27.0977C53.1172 26.5234 54.1953 25.0703 54.207 23.4648V22.1758H55.1094V23.5ZM60.1836 21.543V29.3477H59.2578V24.7656H56.9375V23.9922H59.2578V21.543H60.1836ZM60.418 30.9531V31.7266H53.4453V28.457H54.3711V30.9531H60.418ZM66.4297 22.293V23.0664H63.2656V24.3672H66.3125V25.0938H63.2656V26.5352C64.7832 26.5293 65.7324 26.4766 66.8516 26.2539L66.9453 27.0156C65.7266 27.25 64.7422 27.3086 63.043 27.3086H62.3867V22.293H66.4297ZM70.7656 21.543V27.8594H69.8867V25.0117H68.4219V27.7891H67.5664V21.7422H68.4219V24.2617H69.8867V21.543H70.7656ZM70.7656 28.3984V31.9492H69.8633V29.1484H63.7461V28.3984H70.7656ZM77.4922 23.3359V24.0859H72.2656V23.3359H74.4336V21.8477H75.3477V23.3359H77.4922ZM74.8789 24.7891C76.1914 24.7891 77.1289 25.7734 77.1406 27.1562C77.1289 28.5508 76.1914 29.5469 74.8789 29.5469C73.5781 29.5469 72.6406 28.5508 72.6406 27.1562C72.6406 25.7734 73.5781 24.7891 74.8789 24.7891ZM74.8789 25.5625C74.0586 25.5742 73.4609 26.2422 73.4609 27.1562C73.4609 28.082 74.0586 28.75 74.8789 28.7383C75.7109 28.75 76.3203 28.082 76.3203 27.1562C76.3203 26.2422 75.7109 25.5742 74.8789 25.5625ZM81.1602 21.5312V31.9492H80.2812V26.6875H78.8984V31.4336H78.0312V21.7891H78.8984V25.9258H80.2812V21.5312H81.1602ZM94.3086 21.543V29.2539H93.3828V26.4531H90.9219V27.4727H86.1992V22.2344H87.1133V24.0859H90.0195V22.2344H90.9219V23.4531H93.3828V21.543H94.3086ZM94.543 30.9531V31.7266H87.5703V28.4922H88.4961V30.9531H94.543ZM87.1133 26.7109H90.0195V24.8125H87.1133V26.7109ZM90.9219 25.6914H93.3828V24.2266H90.9219V25.6914ZM104.68 21.543V27.8008H103.754V26.3945H100.988V25.6328H103.754V24.2266H101.094C100.408 25.9023 98.7969 27.1152 96.5703 27.7773L96.1836 27.0508C98.7031 26.3008 100.268 24.8945 100.461 23.0898H96.7109V22.3164H101.457C101.457 22.7266 101.41 23.1191 101.328 23.4883H103.754V21.543H104.68ZM101.27 27.9062C103.379 27.9062 104.738 28.6562 104.738 29.8984C104.738 31.1523 103.379 31.9023 101.27 31.9023C99.1367 31.9023 97.7891 31.1523 97.7891 29.8984C97.7891 28.6562 99.1367 27.9062 101.27 27.9062ZM101.27 28.6445C99.6992 28.6328 98.6914 29.1133 98.6914 29.8984C98.6914 30.6836 99.6992 31.1523 101.27 31.1523C102.816 31.1523 103.812 30.6836 103.824 29.8984C103.812 29.1133 102.816 28.6328 101.27 28.6445ZM111.617 23.3359V24.0859H106.391V23.3359H108.559V21.8477H109.473V23.3359H111.617ZM109.004 24.7891C110.316 24.7891 111.254 25.7734 111.266 27.1562C111.254 28.5508 110.316 29.5469 109.004 29.5469C107.703 29.5469 106.766 28.5508 106.766 27.1562C106.766 25.7734 107.703 24.7891 109.004 24.7891ZM109.004 25.5625C108.184 25.5742 107.586 26.2422 107.586 27.1562C107.586 28.082 108.184 28.75 109.004 28.7383C109.836 28.75 110.445 28.082 110.445 27.1562C110.445 26.2422 109.836 25.5742 109.004 25.5625ZM115.285 21.5312V31.9492H114.406V26.6875H113.023V31.4336H112.156V21.7891H113.023V25.9258H114.406V21.5312H115.285ZM126.324 29.8516V30.6133H116.785V29.8516H121.074V27.6016H117.91V22.2695H118.836V24.1562H124.25V22.2695H125.152V27.6016H121.977V29.8516H126.324ZM118.836 26.8516H124.25V24.9062H118.836V26.8516ZM130.25 24.4961C130.25 26.1484 131.059 27.9414 132.441 28.7617L131.914 29.4766C130.912 28.8672 130.191 27.7539 129.828 26.4883C129.441 27.8711 128.668 29.0605 127.625 29.6992L127.039 29.0078C128.48 28.1641 129.359 26.3125 129.359 24.5312V22.5156H130.25V24.4961ZM136.086 21.5312V31.9492H135.195V21.5312H136.086ZM133.93 21.7539V31.4219H133.062V26.0547H131.293V25.2695H133.062V21.7539H133.93ZM147.066 29.8398V30.6133H137.527V29.8398H139.895V27.0273C139.004 26.5645 138.465 25.8145 138.465 24.8711C138.465 23.2539 140.047 22.1992 142.273 22.1875C144.5 22.1992 146.082 23.2539 146.082 24.8711C146.082 25.7969 145.561 26.541 144.699 27.0039V29.8398H147.066ZM142.273 22.9492C140.562 22.9375 139.355 23.7109 139.355 24.8711C139.355 26.0312 140.562 26.8164 142.273 26.8164C143.973 26.8164 145.191 26.0312 145.191 24.8711C145.191 23.7109 143.973 22.9375 142.273 22.9492ZM140.797 29.8398H143.773V27.3555C143.322 27.4785 142.818 27.543 142.273 27.543C141.74 27.543 141.242 27.4844 140.797 27.3672V29.8398Z" fill="#676F7B"/>
</g>
<defs>
<filter id="filter0_d_759_3848" x="0" y="-1" width="171" height="54" filterUnits="userSpaceOnUse" color-interpolation-filters="sRGB">
<feFlood flood-opacity="0" result="BackgroundImageFix"/>
<feColorMatrix in="SourceAlpha" type="matrix" values="0 0 0 0 0 0 0 0 0 0 0 0 0 0 0 0 0 0 127 0" result="hardAlpha"/>
<feOffset dx="3" dy="3"/>
<feGaussianBlur stdDeviation="5"/>
<feComposite in2="hardAlpha" operator="out"/>
<feColorMatrix type="matrix" values="0 0 0 0 0 0 0 0 0 0 0 0 0 0 0 0 0 0 0.25 0"/>
<feBlend mode="normal" in2="BackgroundImageFix" result="effect1_dropShadow_759_3848"/>
<feBlend mode="normal" in="SourceGraphic" in2="effect1_dropShadow_759_3848" result="shape"/>
</filter>
</defs>
</svg>
