<svg width="11" height="17" viewBox="0 0 11 17" fill="none" xmlns="http://www.w3.org/2000/svg">
<path d="M4.99916 13.6L8.43966 8.6345C8.47166 8.58333 8.47482 8.5305 8.44916 8.476C8.42349 8.4215 8.37866 8.39425 8.31466 8.39425H5.51266L7.26266 2.31725C7.28832 2.24042 7.27549 2.16833 7.22416 2.101C7.17282 2.03367 7.10874 2 7.03191 2H2.49916C2.40949 2 2.33574 2.02883 2.27791 2.0865C2.22024 2.14417 2.19141 2.21792 2.19141 2.30775V9.69225C2.19141 9.78208 2.22024 9.85583 2.27791 9.9135C2.33574 9.97117 2.40949 10 2.49916 10H4.99916V13.6ZM9.98941 9.0135L4.73966 16.6307C4.64599 16.7679 4.52966 16.8582 4.39066 16.9017C4.25149 16.9454 4.11332 16.9454 3.97616 16.9017C3.83899 16.8582 3.72516 16.7787 3.63466 16.6632C3.54432 16.5479 3.49916 16.4082 3.49916 16.2442V11.5H2.49916C2.00049 11.5 1.57457 11.3234 1.22141 10.9702C0.868073 10.6169 0.691406 10.1909 0.691406 9.69225V2.30775C0.691406 1.80908 0.868073 1.38308 1.22141 1.02975C1.57457 0.676583 2.00049 0.5 2.49916 0.5H7.33941C7.83441 0.5 8.23632 0.6875 8.54516 1.0625C8.85416 1.4375 8.94524 1.85258 8.81841 2.30775L7.49916 6.89425H8.86441C9.40674 6.89425 9.80774 7.13367 10.0674 7.6125C10.3271 8.09133 10.3011 8.55833 9.98941 9.0135Z" fill="#171D24"/>
</svg>
