<svg width="355" height="84" viewBox="0 0 355 84" fill="none" xmlns="http://www.w3.org/2000/svg">
<path fill-rule="evenodd" clip-rule="evenodd" d="M9 0C4.02944 0 0 4.02944 0 9V74C0 78.9706 4.02944 83 9.00001 83H239C243.971 83 248 78.9706 248 74L248 42.8052C248 40.596 249.791 38.8052 252 38.8052L264.936 38.8051C267.826 38.8051 269.045 35.1214 266.726 33.3975L249.79 20.8074C248.94 20.1754 248 19.3486 248 18.2893V9C248 4.02944 243.971 0 239 0H9Z" fill="#5453EE"/>
<path d="M62.9056 30.977L64.5783 36.0784C65.3234 38.3457 62.6427 40.2091 60.6632 38.7991L56.2222 35.632C55.857 35.3699 55.353 35.3699 54.9805 35.632L50.4956 38.7495C48.5015 40.1383 45.8427 38.2394 46.617 35.9792L48.3554 30.8991C48.5015 30.4811 48.3481 30.0134 47.9756 29.7513L43.5346 26.5842C41.5624 25.1742 42.5996 22.1346 45.0466 22.1488L50.5613 22.1772C51.0215 22.1772 51.4232 21.8937 51.5693 21.4757L53.3078 16.3956C54.082 14.1354 57.3763 14.1567 58.1213 16.4239L59.794 21.5253C59.9328 21.9504 60.3345 22.2338 60.7947 22.2409L66.3095 22.2693C68.7637 22.2834 69.7644 25.3301 67.7703 26.7188L63.2855 29.8363C62.9129 30.0914 62.7596 30.559 62.8983 30.977H62.9056Z" fill="#FCEF7B"/>
<path d="M97.0189 30.977L98.6916 36.0784C99.4367 38.3457 96.756 40.2091 94.7765 38.7991L90.3355 35.632C89.9703 35.3699 89.4663 35.3699 89.0937 35.632L84.6089 38.7495C82.6148 40.1383 79.956 38.2394 80.7303 35.9792L82.4687 30.8991C82.6148 30.4811 82.4614 30.0134 82.0889 29.7513L77.6479 26.5842C75.6757 25.1742 76.7129 22.1346 79.1599 22.1488L84.6746 22.1772C85.1348 22.1772 85.5365 21.8937 85.6826 21.4757L87.421 16.3956C88.1953 14.1354 91.4896 14.1567 92.2346 16.4239L93.9073 21.5253C94.0461 21.9504 94.4478 22.2338 94.908 22.2409L100.423 22.2693C102.877 22.2834 103.878 25.3301 101.884 26.7188L97.3987 29.8363C97.0262 30.0914 96.8728 30.559 97.0116 30.977H97.0189Z" fill="#FCEF7B"/>
<path d="M131.132 30.977L132.805 36.0784C133.55 38.3457 130.869 40.2091 128.89 38.7991L124.449 35.632C124.084 35.3699 123.58 35.3699 123.207 35.632L118.722 38.7496C116.728 40.1383 114.069 38.2394 114.844 35.9792L116.582 30.8991C116.728 30.4811 116.575 30.0134 116.202 29.7513L111.761 26.5842C109.789 25.1742 110.826 22.1346 113.273 22.1488L118.788 22.1772C119.248 22.1772 119.65 21.8937 119.796 21.4757L121.534 16.3956C122.309 14.1354 125.603 14.1567 126.348 16.4239L128.021 21.5253C128.159 21.9504 128.561 22.2338 129.021 22.2409L134.536 22.2693C136.99 22.2834 137.991 25.3301 135.997 26.7188L131.512 29.8363C131.14 30.0914 130.986 30.559 131.125 30.977H131.132Z" fill="#FCEF7B"/>
<path d="M165.245 30.977L166.918 36.0784C167.663 38.3457 164.983 40.2091 163.003 38.7991L158.562 35.632C158.197 35.3699 157.693 35.3699 157.32 35.632L152.835 38.7496C150.841 40.1383 148.183 38.2394 148.957 35.9792L150.695 30.8991C150.841 30.4811 150.688 30.0134 150.315 29.7513L145.874 26.5842C143.902 25.1742 144.939 22.1346 147.386 22.1488L152.901 22.1772C153.361 22.1772 153.763 21.8937 153.909 21.4757L155.648 16.3956C156.422 14.1354 159.716 14.1567 160.461 16.4239L162.134 21.5253C162.273 21.9504 162.674 22.2338 163.135 22.2409L168.649 22.2693C171.104 22.2834 172.104 25.3301 170.11 26.7188L165.625 29.8363C165.253 30.0914 165.099 30.559 165.238 30.977H165.245Z" fill="#FCEF7B"/>
<path d="M199.359 30.977L201.031 36.0784C201.776 38.3457 199.096 40.2091 197.116 38.7991L192.675 35.632C192.31 35.3699 191.806 35.3699 191.434 35.632L186.949 38.7496C184.955 40.1383 182.296 38.2394 183.07 35.9792L184.809 30.8991C184.955 30.4811 184.801 30.0134 184.429 29.7513L179.988 26.5842C178.016 25.1742 179.053 22.1346 181.5 22.1488L187.014 22.1772C187.475 22.1772 187.876 21.8937 188.022 21.4757L189.761 16.3956C190.535 14.1354 193.829 14.1567 194.574 16.4239L196.247 21.5253C196.386 21.9504 196.788 22.2338 197.248 22.2409L202.763 22.2693C205.217 22.2834 206.218 25.3301 204.223 26.7188L199.739 29.8363C199.366 30.0914 199.213 30.559 199.351 30.977H199.359Z" fill="#FCEF7B"/>
<path d="M85.3047 52.3193C87.3359 52.3193 88.7578 53.4131 88.7578 55.0693C88.7578 56.499 87.6328 57.5381 85.9609 57.7412V59.1006C87.2578 59.0459 88.5781 58.9287 89.7891 58.7412L89.8828 59.6631C86.9453 60.1943 83.6172 60.2256 81.2109 60.2256L81.0547 59.21C82.1328 59.2178 83.3984 59.21 84.7266 59.1631V57.7568C83.0078 57.5693 81.8516 56.5225 81.8672 55.0693C81.8516 53.4131 83.2734 52.3193 85.3047 52.3193ZM85.3047 53.2725C83.9609 53.2725 83.0078 53.9912 83.0234 55.0693C83.0078 56.1162 83.9609 56.835 85.3047 56.8506C86.6641 56.835 87.5859 56.1162 87.6016 55.0693C87.5859 53.9912 86.6641 53.2725 85.3047 53.2725ZM91.9141 51.6787V56.3818H93.9922V57.4287H91.9141V62.3037H90.6797V51.6787H91.9141ZM92.4141 64.21V65.2412H83.0859V61.3818H84.3203V64.21H92.4141ZM106.414 51.6787V61.8662H105.18V56.5381H102.32V55.5225H105.18V51.6787H106.414ZM106.805 64.2256V65.2568H97.4922V60.9443H98.7266V64.2256H106.805ZM99.7266 54.5381C99.7266 56.335 101.117 58.085 103.148 58.7725L102.508 59.7568C100.938 59.1943 99.7266 58.0225 99.1328 56.585C98.5312 58.1865 97.25 59.4678 95.6016 60.085L94.9609 59.085C97.0078 58.3662 98.4922 56.5381 98.4922 54.5381V53.8193H95.3516V52.8037H102.836V53.8193H99.7266V54.5381ZM119.758 52.9287V59.3193H113.336V52.9287H119.758ZM114.539 53.9287V58.335H118.57V53.9287H114.539ZM123.602 51.6631V55.8975H125.695V56.9287H123.602V61.8506H122.383V51.6631H123.602ZM124.242 64.2256V65.2568H114.914V60.8818H116.117V64.2256H124.242ZM138.102 52.2412V53.2412H133.695C133.711 54.8193 136.07 56.0693 138.523 56.3506L138.07 57.3193C135.797 57.0303 133.664 56.0146 132.898 54.46C132.141 56.0146 130.016 57.0303 127.742 57.3193L127.289 56.3506C129.727 56.0693 132.07 54.8193 132.102 53.2412H127.727V52.2412H138.102ZM139.273 58.6475V59.6631H126.57V58.6475H132.289V56.5381H133.492V58.6475H139.273ZM137.664 61.0381V65.5537H136.43V62.0381H127.977V61.0381H137.664ZM147.336 54.0693V55.0693H140.367V54.0693H143.258V52.085H144.477V54.0693H147.336ZM143.852 56.0068C145.602 56.0068 146.852 57.3193 146.867 59.1631C146.852 61.0225 145.602 62.3506 143.852 62.3506C142.117 62.3506 140.867 61.0225 140.867 59.1631C140.867 57.3193 142.117 56.0068 143.852 56.0068ZM143.852 57.0381C142.758 57.0537 141.961 57.9443 141.961 59.1631C141.961 60.3975 142.758 61.2881 143.852 61.2725C144.961 61.2881 145.773 60.3975 145.773 59.1631C145.773 57.9443 144.961 57.0537 143.852 57.0381ZM152.227 51.6631V65.5537H151.055V58.5381H149.211V64.8662H148.055V52.0068H149.211V57.5225H151.055V51.6631H152.227ZM166.945 62.7412V63.7725H154.227V62.7412H157.383V58.9912C156.195 58.374 155.477 57.374 155.477 56.1162C155.477 53.96 157.586 52.5537 160.555 52.5381C163.523 52.5537 165.633 53.96 165.633 56.1162C165.633 57.3506 164.938 58.3428 163.789 58.96V62.7412H166.945ZM160.555 53.5537C158.273 53.5381 156.664 54.5693 156.664 56.1162C156.664 57.6631 158.273 58.71 160.555 58.71C162.82 58.71 164.445 57.6631 164.445 56.1162C164.445 54.5693 162.82 53.5381 160.555 53.5537ZM158.586 62.7412H162.555V59.4287C161.953 59.5928 161.281 59.6787 160.555 59.6787C159.844 59.6787 159.18 59.6006 158.586 59.4443V62.7412Z" fill="white"/>
<path d="M337.54 6H293.92C284.575 6 277 13.5753 277 22.92V66.54C277 75.8847 284.575 83.46 293.92 83.46H337.54C346.885 83.46 354.46 75.8847 354.46 66.54V22.92C354.46 13.5753 346.885 6 337.54 6Z" fill="#5453EE"/>
<path d="M289.619 47.09C305.169 37.42 322.789 30.65 342.249 26.48" stroke="#171C24" stroke-width="2" stroke-linecap="round" stroke-linejoin="round"/>
<path d="M289.43 28.4702C307.62 30.5702 325.62 36.2402 343.45 45.0902" stroke="#171C24" stroke-width="2" stroke-linecap="round" stroke-linejoin="round"/>
<path d="M325.83 53.7298L324.58 54.4498C321.88 55.6998 319.09 56.2698 316.28 56.2698H316.11C313.28 56.2798 310.46 55.7098 307.74 54.4498L306.49 53.7298C302.8 51.6998 301.41 46.3898 304.81 43.7698L304.92 43.6798C306.11 42.7598 307.6 42.2998 309.09 42.2998C310.08 42.2998 311.07 42.4898 311.98 42.8998C311.96 42.9398 311.96 42.9898 311.96 43.0298V44.9498C311.96 45.3698 312.3 45.7198 312.73 45.7198H314.65C315.07 45.7198 315.42 45.3698 315.42 44.9498C315.42 45.3698 315.76 45.7198 316.18 45.7198H318.11C318.53 45.7198 318.87 45.3698 318.87 44.9498V43.7098C319.08 43.5998 319.29 43.4898 319.5 43.3598C320.61 42.6398 321.92 42.2998 323.23 42.2998C324.72 42.2998 326.22 42.7598 327.4 43.6798L327.51 43.7698C330.91 46.3898 329.52 51.6998 325.83 53.7298Z" fill="#171C24"/>
<path d="M315.419 44.3199V44.9499C315.419 45.3699 315.069 45.7199 314.649 45.7199H312.729C312.299 45.7199 311.959 45.3699 311.959 44.9499V43.0299C311.959 43.0299 311.959 42.9399 311.979 42.8999C312.269 43.0299 312.559 43.1799 312.829 43.3599C313.619 43.8599 314.499 44.1799 315.419 44.3199Z" fill="white"/>
<path d="M318.87 43.71V44.95C318.87 45.37 318.53 45.72 318.11 45.72H316.18C315.76 45.72 315.42 45.37 315.42 44.95V44.32C315.66 44.36 315.91 44.39 316.16 44.4C317.11 44.35 318.02 44.12 318.87 43.71Z" fill="white"/>
<path d="M316.71 44.8701H313.27V45.7201H316.71V44.8701Z" fill="white"/>
</svg>
