<svg width="354" height="83" viewBox="0 0 354 83" fill="none" xmlns="http://www.w3.org/2000/svg">
<path fill-rule="evenodd" clip-rule="evenodd" d="M9 0C4.02944 0 0 4.02944 0 9V74C0 78.9706 4.02944 83 9.00001 83H239C243.971 83 248 78.9706 248 74L248 42.8052C248 40.596 249.791 38.8052 252 38.8052L264.936 38.8051C267.826 38.8051 269.045 35.1214 266.726 33.3975L249.79 20.8074C248.94 20.1754 248 19.3486 248 18.2893V9C248 4.02944 243.971 0 239 0H9Z" fill="#5453EE"/>
<path d="M62.9056 30.977L64.5783 36.0784C65.3234 38.3457 62.6427 40.2091 60.6632 38.7991L56.2222 35.632C55.857 35.3699 55.353 35.3699 54.9805 35.632L50.4956 38.7495C48.5015 40.1383 45.8427 38.2394 46.617 35.9792L48.3554 30.8991C48.5015 30.4811 48.3481 30.0134 47.9756 29.7513L43.5346 26.5842C41.5624 25.1742 42.5996 22.1346 45.0466 22.1488L50.5613 22.1772C51.0215 22.1772 51.4232 21.8937 51.5693 21.4757L53.3078 16.3956C54.082 14.1354 57.3763 14.1567 58.1213 16.4239L59.794 21.5253C59.9328 21.9504 60.3345 22.2338 60.7947 22.2409L66.3095 22.2693C68.7637 22.2834 69.7644 25.3301 67.7703 26.7188L63.2855 29.8363C62.9129 30.0914 62.7596 30.559 62.8983 30.977H62.9056Z" fill="#FCEF7B"/>
<path d="M97.0189 30.977L98.6916 36.0784C99.4367 38.3457 96.756 40.2091 94.7765 38.7991L90.3355 35.632C89.9703 35.3699 89.4663 35.3699 89.0937 35.632L84.6089 38.7495C82.6148 40.1383 79.956 38.2394 80.7303 35.9792L82.4687 30.8991C82.6148 30.4811 82.4614 30.0134 82.0889 29.7513L77.6479 26.5842C75.6757 25.1742 76.7129 22.1346 79.1599 22.1488L84.6746 22.1772C85.1348 22.1772 85.5365 21.8937 85.6826 21.4757L87.421 16.3956C88.1953 14.1354 91.4896 14.1567 92.2346 16.4239L93.9073 21.5253C94.0461 21.9504 94.4478 22.2338 94.908 22.2409L100.423 22.2693C102.877 22.2834 103.878 25.3301 101.884 26.7188L97.3987 29.8363C97.0262 30.0914 96.8728 30.559 97.0116 30.977H97.0189Z" fill="#FCEF7B"/>
<path d="M131.132 30.977L132.805 36.0784C133.55 38.3457 130.869 40.2091 128.89 38.7991L124.449 35.632C124.084 35.3699 123.58 35.3699 123.207 35.632L118.722 38.7496C116.728 40.1383 114.069 38.2394 114.844 35.9792L116.582 30.8991C116.728 30.4811 116.575 30.0134 116.202 29.7513L111.761 26.5842C109.789 25.1742 110.826 22.1346 113.273 22.1488L118.788 22.1772C119.248 22.1772 119.65 21.8937 119.796 21.4757L121.534 16.3956C122.309 14.1354 125.603 14.1567 126.348 16.4239L128.021 21.5253C128.159 21.9504 128.561 22.2338 129.021 22.2409L134.536 22.2693C136.99 22.2834 137.991 25.3301 135.997 26.7188L131.512 29.8363C131.14 30.0914 130.986 30.559 131.125 30.977H131.132Z" fill="#FCEF7B"/>
<path d="M165.245 30.977L166.918 36.0784C167.663 38.3457 164.983 40.2091 163.003 38.7991L158.562 35.632C158.197 35.3699 157.693 35.3699 157.32 35.632L152.835 38.7496C150.841 40.1383 148.183 38.2394 148.957 35.9792L150.695 30.8991C150.841 30.4811 150.688 30.0134 150.315 29.7513L145.874 26.5842C143.902 25.1742 144.939 22.1346 147.386 22.1488L152.901 22.1772C153.361 22.1772 153.763 21.8937 153.909 21.4757L155.648 16.3956C156.422 14.1354 159.716 14.1567 160.461 16.4239L162.134 21.5253C162.273 21.9504 162.674 22.2338 163.135 22.2409L168.649 22.2693C171.104 22.2834 172.104 25.3301 170.11 26.7188L165.625 29.8363C165.253 30.0914 165.099 30.559 165.238 30.977H165.245Z" fill="#FCEF7B"/>
<path d="M199.359 30.977L201.031 36.0784C201.776 38.3457 199.096 40.2091 197.116 38.7991L192.675 35.632C192.31 35.3699 191.806 35.3699 191.434 35.632L186.949 38.7496C184.955 40.1383 182.296 38.2394 183.07 35.9792L184.809 30.8991C184.955 30.4811 184.801 30.0134 184.429 29.7513L179.988 26.5842C178.016 25.1742 179.053 22.1346 181.5 22.1488L187.014 22.1772C187.475 22.1772 187.876 21.8937 188.022 21.4757L189.761 16.3956C190.535 14.1354 193.829 14.1567 194.574 16.4239L196.247 21.5253C196.386 21.9504 196.788 22.2338 197.248 22.2409L202.763 22.2693C205.217 22.2834 206.218 25.3301 204.223 26.7188L199.739 29.8363C199.366 30.0914 199.213 30.559 199.351 30.977H199.359Z" fill="#B0B0EE"/>
<path d="M103.922 52.9287V59.3193H97.5V52.9287H103.922ZM98.7031 53.9287V58.335H102.734V53.9287H98.7031ZM107.766 51.6631V55.8975H109.859V56.9287H107.766V61.8506H106.547V51.6631H107.766ZM108.406 64.2256V65.2568H99.0781V60.8818H100.281V64.2256H108.406ZM122.266 52.2412V53.2412H117.859C117.875 54.8193 120.234 56.0693 122.688 56.3506L122.234 57.3193C119.961 57.0303 117.828 56.0146 117.062 54.46C116.305 56.0146 114.18 57.0303 111.906 57.3193L111.453 56.3506C113.891 56.0693 116.234 54.8193 116.266 53.2412H111.891V52.2412H122.266ZM123.438 58.6475V59.6631H110.734V58.6475H116.453V56.5381H117.656V58.6475H123.438ZM121.828 61.0381V65.5537H120.594V62.0381H112.141V61.0381H121.828ZM131.5 54.0693V55.0693H124.531V54.0693H127.422V52.085H128.641V54.0693H131.5ZM128.016 56.0068C129.766 56.0068 131.016 57.3193 131.031 59.1631C131.016 61.0225 129.766 62.3506 128.016 62.3506C126.281 62.3506 125.031 61.0225 125.031 59.1631C125.031 57.3193 126.281 56.0068 128.016 56.0068ZM128.016 57.0381C126.922 57.0537 126.125 57.9443 126.125 59.1631C126.125 60.3975 126.922 61.2881 128.016 61.2725C129.125 61.2881 129.938 60.3975 129.938 59.1631C129.938 57.9443 129.125 57.0537 128.016 57.0381ZM136.391 51.6631V65.5537H135.219V58.5381H133.375V64.8662H132.219V52.0068H133.375V57.5225H135.219V51.6631H136.391ZM151.109 62.7412V63.7725H138.391V62.7412H141.547V58.9912C140.359 58.374 139.641 57.374 139.641 56.1162C139.641 53.96 141.75 52.5537 144.719 52.5381C147.688 52.5537 149.797 53.96 149.797 56.1162C149.797 57.3506 149.102 58.3428 147.953 58.96V62.7412H151.109ZM144.719 53.5537C142.438 53.5381 140.828 54.5693 140.828 56.1162C140.828 57.6631 142.438 58.71 144.719 58.71C146.984 58.71 148.609 57.6631 148.609 56.1162C148.609 54.5693 146.984 53.5381 144.719 53.5537ZM142.75 62.7412H146.719V59.4287C146.117 59.5928 145.445 59.6787 144.719 59.6787C144.008 59.6787 143.344 59.6006 142.75 59.4443V62.7412Z" fill="white"/>
<path d="M337.18 6H293.82C284.53 6 277 13.5304 277 22.8195V66.1805C277 75.4696 284.53 83 293.82 83H337.18C346.47 83 354 75.4696 354 66.1805V22.8195C354 13.5304 346.47 6 337.18 6Z" fill="#B0B0EE"/>
<path d="M341.665 34.4994C341.665 41.4081 336.058 47.0047 329.16 47.0047C322.261 47.0047 316.654 41.4081 316.654 34.4994C316.654 33.734 316.724 32.9884 316.863 32.2627L339.488 27.4614C340.86 29.4595 341.665 31.8949 341.665 34.4994Z" fill="white"/>
<path d="M329.16 33.3166C329.16 36.756 326.387 39.5295 322.957 39.5295C319.528 39.5295 316.744 36.756 316.744 33.3166C316.744 32.9587 316.774 32.6108 316.844 32.2629L328.106 29.8672C328.772 30.8612 329.16 32.0442 329.16 33.3166Z" fill="#171C24"/>
<path d="M318.105 53.506C316.832 55.4047 314.944 56.7566 312.687 57.1741C310.848 57.5121 309.019 57.184 307.389 56.3291C307.747 54.6293 308.82 53.0786 310.47 52.174C313.065 50.7525 316.226 51.3688 318.105 53.506Z" fill="#676E79"/>
<path d="M319.946 47.7903C319.866 49.679 319.339 51.4485 318.465 52.9396C318.355 53.1284 318.236 53.3173 318.107 53.5062C316.228 51.3689 313.067 50.7526 310.472 52.1741C308.822 53.0787 307.749 54.6295 307.391 56.3293C305.333 55.2657 303.593 53.3769 302.57 50.9912C302.122 49.9474 302.778 48.7446 303.902 48.5359L317.818 45.9811C318.942 45.7724 319.995 46.6472 319.946 47.7903Z" fill="#171C24"/>
<path d="M290.844 26.9946C291.182 27.2233 310.049 33.6648 310.049 33.6648C303.18 34.46 296.659 36.647 290.615 40.9015" stroke="#171C24" stroke-width="1.98812" stroke-linecap="round" stroke-linejoin="round"/>
</svg>
