<svg width="355" height="84" viewBox="0 0 355 84" fill="none" xmlns="http://www.w3.org/2000/svg">
<path d="M0 9C0 4.02944 4.02944 0 9 0H239C243.971 0 248 4.02944 248 9V74C248 78.9706 243.971 83 239 83H9.00001C4.02944 83 0 78.9706 0 74V9Z" fill="#5453EE"/>
<path d="M62.9056 30.977L64.5783 36.0784C65.3234 38.3457 62.6427 40.2091 60.6632 38.7991L56.2222 35.632C55.857 35.3699 55.353 35.3699 54.9805 35.632L50.4956 38.7495C48.5015 40.1383 45.8427 38.2394 46.617 35.9792L48.3554 30.8991C48.5015 30.4811 48.3481 30.0134 47.9756 29.7513L43.5346 26.5842C41.5624 25.1742 42.5996 22.1346 45.0466 22.1488L50.5613 22.1772C51.0215 22.1772 51.4232 21.8937 51.5693 21.4757L53.3078 16.3956C54.082 14.1354 57.3763 14.1567 58.1213 16.4239L59.794 21.5253C59.9328 21.9504 60.3345 22.2338 60.7947 22.2409L66.3095 22.2693C68.7637 22.2834 69.7644 25.3301 67.7703 26.7188L63.2855 29.8363C62.9129 30.0914 62.7596 30.559 62.8983 30.977H62.9056Z" fill="#FCEF7B"/>
<path d="M97.0189 30.977L98.6916 36.0784C99.4367 38.3457 96.756 40.2091 94.7765 38.7991L90.3355 35.632C89.9703 35.3699 89.4663 35.3699 89.0937 35.632L84.6089 38.7495C82.6148 40.1383 79.956 38.2394 80.7303 35.9792L82.4687 30.8991C82.6148 30.4811 82.4614 30.0134 82.0889 29.7513L77.6479 26.5842C75.6757 25.1742 76.7129 22.1346 79.1599 22.1488L84.6746 22.1772C85.1348 22.1772 85.5365 21.8937 85.6826 21.4757L87.421 16.3956C88.1953 14.1354 91.4896 14.1567 92.2346 16.4239L93.9073 21.5253C94.0461 21.9504 94.4478 22.2338 94.908 22.2409L100.423 22.2693C102.877 22.2834 103.878 25.3301 101.884 26.7188L97.3987 29.8363C97.0262 30.0914 96.8728 30.559 97.0116 30.977H97.0189Z" fill="#B0B0EE"/>
<path d="M131.132 30.977L132.805 36.0784C133.55 38.3457 130.869 40.2091 128.89 38.7991L124.449 35.632C124.084 35.3699 123.58 35.3699 123.207 35.632L118.722 38.7496C116.728 40.1383 114.069 38.2394 114.844 35.9792L116.582 30.8991C116.728 30.4811 116.575 30.0134 116.202 29.7513L111.761 26.5842C109.789 25.1742 110.826 22.1346 113.273 22.1488L118.788 22.1772C119.248 22.1772 119.65 21.8937 119.796 21.4757L121.534 16.3956C122.309 14.1354 125.603 14.1567 126.348 16.4239L128.021 21.5253C128.159 21.9504 128.561 22.2338 129.021 22.2409L134.536 22.2693C136.99 22.2834 137.991 25.3301 135.997 26.7188L131.512 29.8363C131.14 30.0914 130.986 30.559 131.125 30.977H131.132Z" fill="#B0B0EE"/>
<path d="M165.245 30.977L166.918 36.0784C167.663 38.3457 164.983 40.2091 163.003 38.7991L158.562 35.632C158.197 35.3699 157.693 35.3699 157.32 35.632L152.835 38.7496C150.841 40.1383 148.183 38.2394 148.957 35.9792L150.695 30.8991C150.841 30.4811 150.688 30.0134 150.315 29.7513L145.874 26.5842C143.902 25.1742 144.939 22.1346 147.386 22.1488L152.901 22.1772C153.361 22.1772 153.763 21.8937 153.909 21.4757L155.648 16.3956C156.422 14.1354 159.716 14.1567 160.461 16.4239L162.134 21.5253C162.273 21.9504 162.674 22.2338 163.135 22.2409L168.649 22.2693C171.104 22.2834 172.104 25.3301 170.11 26.7188L165.625 29.8363C165.253 30.0914 165.099 30.559 165.238 30.977H165.245Z" fill="#B0B0EE"/>
<path d="M199.359 30.977L201.031 36.0784C201.776 38.3457 199.096 40.2091 197.116 38.7991L192.675 35.632C192.31 35.3699 191.806 35.3699 191.434 35.632L186.949 38.7496C184.955 40.1383 182.296 38.2394 183.07 35.9792L184.809 30.8991C184.955 30.4811 184.801 30.0134 184.429 29.7513L179.988 26.5842C178.016 25.1742 179.053 22.1346 181.5 22.1488L187.014 22.1772C187.475 22.1772 187.876 21.8937 188.022 21.4757L189.761 16.3956C190.535 14.1354 193.829 14.1567 194.574 16.4239L196.247 21.5253C196.386 21.9504 196.788 22.2338 197.248 22.2409L202.763 22.2693C205.217 22.2834 206.218 25.3301 204.223 26.7188L199.739 29.8363C199.366 30.0914 199.213 30.559 199.351 30.977H199.359Z" fill="#B0B0EE"/>
<path d="M100.625 52.7412C102.672 52.7568 104.125 54.6318 104.141 57.585C104.125 60.5381 102.672 62.4131 100.625 62.4131C98.5625 62.4131 97.125 60.5381 97.125 57.585C97.125 54.6318 98.5625 52.7568 100.625 52.7412ZM100.625 53.835C99.25 53.8506 98.2812 55.3193 98.2812 57.585C98.2812 59.8506 99.25 61.3193 100.625 61.3193C102.016 61.3193 102.953 59.8506 102.953 57.585C102.953 55.3193 102.016 53.8506 100.625 53.835ZM107.656 51.6631V57.21H109.984V58.2725H107.656V65.5537H106.438V51.6631H107.656ZM115.922 53.1318C115.922 54.7412 117.328 56.0693 119.422 56.5693L118.844 57.5537C117.195 57.1084 115.93 56.1943 115.328 54.9443C114.695 56.335 113.383 57.3896 111.719 57.8818L111.094 56.9131C113.203 56.3506 114.672 54.8662 114.672 53.1318V52.2725H115.922V53.1318ZM122.188 51.6787V65.5693H120.984V51.6787H122.188ZM110.703 59.1162C113.328 59.1318 116.875 59.1006 119.969 58.6631L120.047 59.5537C118.719 59.7881 117.344 59.9365 116 60.0225V65.1318H114.781V60.085C113.375 60.1553 112.039 60.1631 110.875 60.1631L110.703 59.1162ZM136.062 51.6787V65.5693H134.812V62.1162H131.609V61.1787H134.812V51.6787H136.062ZM124.5 58.9912C127.156 58.9912 130.672 58.9756 133.734 58.5381L133.812 59.46C132.438 59.6943 131.008 59.835 129.625 59.9131V65.1318H128.391V59.9756C127.055 60.0303 125.789 60.0381 124.672 60.0381L124.5 58.9912ZM129.078 52.3662C131.141 52.3662 132.578 53.4756 132.578 55.1006C132.578 56.7568 131.141 57.8193 129.078 57.8193C127 57.8193 125.562 56.7568 125.562 55.1006C125.562 53.4756 127 52.3662 129.078 52.3662ZM129.078 53.3193C127.672 53.3193 126.703 54.0537 126.719 55.1006C126.703 56.1631 127.672 56.8662 129.078 56.8662C130.438 56.8662 131.422 56.1631 131.422 55.1006C131.422 54.0537 130.438 53.3193 129.078 53.3193ZM151.109 62.7412V63.7725H138.391V62.7412H141.547V58.9912C140.359 58.374 139.641 57.374 139.641 56.1162C139.641 53.96 141.75 52.5537 144.719 52.5381C147.688 52.5537 149.797 53.96 149.797 56.1162C149.797 57.3506 149.102 58.3428 147.953 58.96V62.7412H151.109ZM144.719 53.5537C142.438 53.5381 140.828 54.5693 140.828 56.1162C140.828 57.6631 142.438 58.71 144.719 58.71C146.984 58.71 148.609 57.6631 148.609 56.1162C148.609 54.5693 146.984 53.5381 144.719 53.5537ZM142.75 62.7412H146.719V59.4287C146.117 59.5928 145.445 59.6787 144.719 59.6787C144.008 59.6787 143.344 59.6006 142.75 59.4443V62.7412Z" fill="white"/>
<path d="M264.936 38.8051C267.825 38.8051 269.045 35.1213 266.726 33.3975L249.79 20.8074C247.811 19.336 245 20.7488 245 23.215L245 35.8052C245 37.462 246.343 38.8052 248 38.8052L264.936 38.8051Z" fill="#5453EE"/>
<path d="M337.54 6H293.92C284.575 6 277 13.5753 277 22.92V66.54C277 75.8847 284.575 83.46 293.92 83.46H337.54C346.885 83.46 354.46 75.8847 354.46 66.54V22.92C354.46 13.5753 346.885 6 337.54 6Z" fill="#9DF4B6"/>
<path d="M310.029 46.78C310.029 46.78 315.359 43.7 321.819 46.84" stroke="#171C24" stroke-width="2" stroke-linecap="round" stroke-linejoin="round"/>
<path d="M343.961 32.2699C343.961 39.2199 338.321 44.8499 331.381 44.8499C324.441 44.8499 318.801 39.2199 318.801 32.2699C318.801 31.4999 318.871 30.7499 319.011 30.0199L341.771 25.1899C343.151 27.1999 343.961 29.6499 343.961 32.2699Z" fill="white"/>
<path d="M331.371 31.0799C331.371 34.5399 328.581 37.3299 325.131 37.3299C321.681 37.3299 318.881 34.5399 318.881 31.0799C318.881 30.7199 318.911 30.3699 318.981 30.0199L330.311 27.6099C330.981 28.6099 331.371 29.7999 331.371 31.0799Z" fill="#171C24"/>
<path d="M288.01 32.1899C288.01 39.1399 293.65 44.7699 300.59 44.7699C307.53 44.7699 313.17 39.1399 313.17 32.1899C313.17 31.4199 313.1 30.6699 312.96 29.9399L290.2 25.1099C288.82 27.1199 288.01 29.5699 288.01 32.1899Z" fill="white"/>
<path d="M300.6 30.9998C300.6 34.4598 303.39 37.2498 306.84 37.2498C310.29 37.2498 313.09 34.4598 313.09 30.9998C313.09 30.6398 313.06 30.2898 312.99 29.9398L301.66 27.5298C300.99 28.5298 300.6 29.7198 300.6 30.9998Z" fill="#171C24"/>
</svg>
