<svg width="355" height="84" viewBox="0 0 355 84" fill="none" xmlns="http://www.w3.org/2000/svg">
<path fill-rule="evenodd" clip-rule="evenodd" d="M9 0C4.02944 0 0 4.02944 0 9V74C0 78.9706 4.02944 83 9.00001 83H239C243.971 83 248 78.9706 248 74L248 42.8052C248 40.596 249.791 38.8052 252 38.8052L264.936 38.8051C267.826 38.8051 269.045 35.1214 266.726 33.3975L249.79 20.8074C248.94 20.1754 248 19.3486 248 18.2893V9C248 4.02944 243.971 0 239 0H9Z" fill="#5453EE"/>
<path d="M62.9056 30.977L64.5783 36.0784C65.3234 38.3457 62.6427 40.2091 60.6632 38.7991L56.2222 35.632C55.857 35.3699 55.353 35.3699 54.9805 35.632L50.4956 38.7495C48.5015 40.1383 45.8427 38.2394 46.617 35.9792L48.3554 30.8991C48.5015 30.4811 48.3481 30.0134 47.9756 29.7513L43.5346 26.5842C41.5624 25.1742 42.5996 22.1346 45.0466 22.1488L50.5613 22.1772C51.0215 22.1772 51.4232 21.8937 51.5693 21.4757L53.3078 16.3956C54.082 14.1354 57.3763 14.1567 58.1213 16.4239L59.794 21.5253C59.9328 21.9504 60.3345 22.2338 60.7947 22.2409L66.3095 22.2693C68.7637 22.2834 69.7644 25.3301 67.7703 26.7188L63.2855 29.8363C62.9129 30.0914 62.7596 30.559 62.8983 30.977H62.9056Z" fill="#FCEF7B"/>
<path d="M97.0189 30.977L98.6916 36.0784C99.4367 38.3457 96.756 40.2091 94.7765 38.7991L90.3355 35.632C89.9703 35.3699 89.4663 35.3699 89.0937 35.632L84.6089 38.7495C82.6148 40.1383 79.956 38.2394 80.7303 35.9792L82.4687 30.8991C82.6148 30.4811 82.4614 30.0134 82.0889 29.7513L77.6479 26.5842C75.6757 25.1742 76.7129 22.1346 79.1599 22.1488L84.6746 22.1772C85.1348 22.1772 85.5365 21.8937 85.6826 21.4757L87.421 16.3956C88.1953 14.1354 91.4896 14.1567 92.2346 16.4239L93.9073 21.5253C94.0461 21.9504 94.4478 22.2338 94.908 22.2409L100.423 22.2693C102.877 22.2834 103.878 25.3301 101.884 26.7188L97.3987 29.8363C97.0262 30.0914 96.8728 30.559 97.0116 30.977H97.0189Z" fill="#FCEF7B"/>
<path d="M131.132 30.977L132.805 36.0784C133.55 38.3457 130.869 40.2091 128.89 38.7991L124.449 35.632C124.084 35.3699 123.58 35.3699 123.207 35.632L118.722 38.7496C116.728 40.1383 114.069 38.2394 114.844 35.9792L116.582 30.8991C116.728 30.4811 116.575 30.0134 116.202 29.7513L111.761 26.5842C109.789 25.1742 110.826 22.1346 113.273 22.1488L118.788 22.1772C119.248 22.1772 119.65 21.8937 119.796 21.4757L121.534 16.3956C122.309 14.1354 125.603 14.1567 126.348 16.4239L128.021 21.5253C128.159 21.9504 128.561 22.2338 129.021 22.2409L134.536 22.2693C136.99 22.2834 137.991 25.3301 135.997 26.7188L131.512 29.8363C131.14 30.0914 130.986 30.559 131.125 30.977H131.132Z" fill="#B0B0EE"/>
<path d="M165.245 30.977L166.918 36.0784C167.663 38.3457 164.983 40.2091 163.003 38.7991L158.562 35.632C158.197 35.3699 157.693 35.3699 157.32 35.632L152.835 38.7496C150.841 40.1383 148.183 38.2394 148.957 35.9792L150.695 30.8991C150.841 30.4811 150.688 30.0134 150.315 29.7513L145.874 26.5842C143.902 25.1742 144.939 22.1346 147.386 22.1488L152.901 22.1772C153.361 22.1772 153.763 21.8937 153.909 21.4757L155.648 16.3956C156.422 14.1354 159.716 14.1567 160.461 16.4239L162.134 21.5253C162.273 21.9504 162.674 22.2338 163.135 22.2409L168.649 22.2693C171.104 22.2834 172.104 25.3301 170.11 26.7188L165.625 29.8363C165.253 30.0914 165.099 30.559 165.238 30.977H165.245Z" fill="#B0B0EE"/>
<path d="M199.359 30.977L201.031 36.0784C201.776 38.3457 199.096 40.2091 197.116 38.7991L192.675 35.632C192.31 35.3699 191.806 35.3699 191.434 35.632L186.949 38.7496C184.955 40.1383 182.296 38.2394 183.07 35.9792L184.809 30.8991C184.955 30.4811 184.801 30.0134 184.429 29.7513L179.988 26.5842C178.016 25.1742 179.053 22.1346 181.5 22.1488L187.014 22.1772C187.475 22.1772 187.876 21.8937 188.022 21.4757L189.761 16.3956C190.535 14.1354 193.829 14.1567 194.574 16.4239L196.247 21.5253C196.386 21.9504 196.788 22.2338 197.248 22.2409L202.763 22.2693C205.217 22.2834 206.218 25.3301 204.223 26.7188L199.739 29.8363C199.366 30.0914 199.213 30.559 199.351 30.977H199.359Z" fill="#B0B0EE"/>
<path d="M93.7891 62.7412V63.7725H81.0703V62.7412H86.8047V59.3662H88.0391V62.7412H93.7891ZM88.0391 54.3037C88.0391 56.5225 90.7891 58.4287 93.1797 58.8193L92.6797 59.7881C90.5547 59.374 88.3125 58.0225 87.4297 56.085C86.5312 58.0303 84.2969 59.4131 82.2109 59.8506L81.6953 58.8662C84.0391 58.46 86.7734 56.5225 86.7734 54.3037V53.96H82.1172V52.9287H92.6953V53.96H88.0391V54.3037ZM105.945 52.4131V53.4443C105.945 54.5225 105.945 55.7881 105.586 57.5225H107.617V58.5381H94.8984V57.5225H104.352C104.727 55.7803 104.727 54.5225 104.727 53.4443V53.4287H96.5078V52.4131H105.945ZM106.008 60.46V65.3662H96.4609V60.46H106.008ZM97.6797 61.4287V64.3662H104.789V61.4287H97.6797ZM116.461 52.7412C118.508 52.7568 119.961 54.6318 119.977 57.585C119.961 60.5381 118.508 62.4131 116.461 62.4131C114.398 62.4131 112.961 60.5381 112.961 57.585C112.961 54.6318 114.398 52.7568 116.461 52.7412ZM116.461 53.835C115.086 53.8506 114.117 55.3193 114.117 57.585C114.117 59.8506 115.086 61.3193 116.461 61.3193C117.852 61.3193 118.789 59.8506 118.789 57.585C118.789 55.3193 117.852 53.8506 116.461 53.835ZM123.492 51.6631V57.21H125.82V58.2725H123.492V65.5537H122.273V51.6631H123.492ZM131.758 53.1318C131.758 54.7412 133.164 56.0693 135.258 56.5693L134.68 57.5537C133.031 57.1084 131.766 56.1943 131.164 54.9443C130.531 56.335 129.219 57.3896 127.555 57.8818L126.93 56.9131C129.039 56.3506 130.508 54.8662 130.508 53.1318V52.2725H131.758V53.1318ZM138.023 51.6787V65.5693H136.82V51.6787H138.023ZM126.539 59.1162C129.164 59.1318 132.711 59.1006 135.805 58.6631L135.883 59.5537C134.555 59.7881 133.18 59.9365 131.836 60.0225V65.1318H130.617V60.085C129.211 60.1553 127.875 60.1631 126.711 60.1631L126.539 59.1162ZM151.898 51.6787V65.5693H150.648V62.1162H147.445V61.1787H150.648V51.6787H151.898ZM140.336 58.9912C142.992 58.9912 146.508 58.9756 149.57 58.5381L149.648 59.46C148.273 59.6943 146.844 59.835 145.461 59.9131V65.1318H144.227V59.9756C142.891 60.0303 141.625 60.0381 140.508 60.0381L140.336 58.9912ZM144.914 52.3662C146.977 52.3662 148.414 53.4756 148.414 55.1006C148.414 56.7568 146.977 57.8193 144.914 57.8193C142.836 57.8193 141.398 56.7568 141.398 55.1006C141.398 53.4756 142.836 52.3662 144.914 52.3662ZM144.914 53.3193C143.508 53.3193 142.539 54.0537 142.555 55.1006C142.539 56.1631 143.508 56.8662 144.914 56.8662C146.273 56.8662 147.258 56.1631 147.258 55.1006C147.258 54.0537 146.273 53.3193 144.914 53.3193ZM166.945 62.7412V63.7725H154.227V62.7412H157.383V58.9912C156.195 58.374 155.477 57.374 155.477 56.1162C155.477 53.96 157.586 52.5537 160.555 52.5381C163.523 52.5537 165.633 53.96 165.633 56.1162C165.633 57.3506 164.938 58.3428 163.789 58.96V62.7412H166.945ZM160.555 53.5537C158.273 53.5381 156.664 54.5693 156.664 56.1162C156.664 57.6631 158.273 58.71 160.555 58.71C162.82 58.71 164.445 57.6631 164.445 56.1162C164.445 54.5693 162.82 53.5381 160.555 53.5537ZM158.586 62.7412H162.555V59.4287C161.953 59.5928 161.281 59.6787 160.555 59.6787C159.844 59.6787 159.18 59.6006 158.586 59.4443V62.7412Z" fill="white"/>
<path d="M337.54 6H293.92C284.575 6 277 13.5753 277 22.92V66.54C277 75.8847 284.575 83.46 293.92 83.46H337.54C346.885 83.46 354.46 75.8847 354.46 66.54V22.92C354.46 13.5753 346.885 6 337.54 6Z" fill="#FCEF7B"/>
<path d="M303.23 47.5501C310.178 47.5501 315.81 41.9179 315.81 34.9701C315.81 28.0224 310.178 22.3901 303.23 22.3901C296.283 22.3901 290.65 28.0224 290.65 34.9701C290.65 41.9179 296.283 47.5501 303.23 47.5501Z" fill="white"/>
<path d="M328.06 47.5501C335.008 47.5501 340.64 41.9179 340.64 34.9701C340.64 28.0224 335.008 22.3901 328.06 22.3901C321.113 22.3901 315.48 28.0224 315.48 34.9701C315.48 41.9179 321.113 47.5501 328.06 47.5501Z" fill="white"/>
<path d="M307.699 37.5298C311.151 37.5298 313.949 34.7316 313.949 31.2798C313.949 27.828 311.151 25.0298 307.699 25.0298C304.247 25.0298 301.449 27.828 301.449 31.2798C301.449 34.7316 304.247 37.5298 307.699 37.5298Z" fill="#171C24"/>
<path d="M332.779 37.5298C336.231 37.5298 339.029 34.7316 339.029 31.2798C339.029 27.828 336.231 25.0298 332.779 25.0298C329.328 25.0298 326.529 27.828 326.529 31.2798C326.529 34.7316 329.328 37.5298 332.779 37.5298Z" fill="#171C24"/>
<path d="M309.6 52.6299H320.86" stroke="#171C24" stroke-width="2" stroke-linecap="round" stroke-linejoin="round"/>
</svg>
